<svg width="79" height="67" viewBox="0 0 79 67" fill="none" xmlns="http://www.w3.org/2000/svg">
<path d="M70.9421 10.037V13.0576V25.238V30.1842L56.4141 30.1782V25.0747V16.5184L48.7578 22.3387V45.0507L56.4141 51.1001V43.6031V37.042L70.9421 37.048V43.7644V53.5194L78.3435 53.5771V4.93945L70.9421 10.037Z" fill="#004A98"/>
<path d="M43.8628 54.93C40.5992 56.7918 37.0169 57.7197 33.1141 57.7197C29.9421 57.7197 26.9692 57.0786 24.1954 55.7982C21.4196 54.5179 18.9963 52.7795 16.9235 50.5832C14.8486 48.3869 13.2038 45.8261 11.9832 42.899C10.7626 39.9719 10.1533 36.8318 10.1533 33.4765C10.1533 30.1213 10.7626 26.9811 11.9832 24.054C13.2018 21.1269 14.8486 18.5642 16.9235 16.3699C18.9963 14.1736 21.4196 12.4372 24.1954 11.1549C26.9692 9.8745 29.9421 9.23333 33.1141 9.23333C37.0169 9.23333 40.5992 10.1632 43.8628 12.023C45.7425 13.0943 47.4171 14.3807 48.9026 15.8681L56.8018 9.98004C54.3546 7.46313 51.541 5.34645 48.3431 3.65191C43.7393 1.22062 38.6637 0 33.1141 0C28.5403 0 24.2412 0.884106 20.2169 2.65232C16.1927 4.42252 12.6841 6.81398 9.69728 9.83269C6.70845 12.8514 4.34685 16.3898 2.60851 20.4439C0.870167 24.5001 0 28.8469 0 33.4805C0 38.1141 0.870167 42.461 2.60652 46.5151C4.34486 50.5712 6.70646 54.1077 9.69529 57.1264C12.6821 60.1451 16.1907 62.5385 20.215 64.3067C24.2392 66.0769 28.5383 66.959 33.1121 66.959C38.6617 66.959 43.7373 65.7404 48.3431 63.2992C51.5589 61.5967 54.3844 59.4661 56.8416 56.9312L48.9544 51.0312C47.457 52.5406 45.7624 53.8448 43.8588 54.93" fill="#898A8D"/>
</svg>
