<svg width="271" height="67" viewBox="0 0 271 67" fill="none" xmlns="http://www.w3.org/2000/svg">
<g clip-path="url(#clip0_1674_2)">
<path d="M106.712 43.7158C108.493 43.7158 110.122 43.3214 111.612 42.5324C113.096 41.7435 114.316 40.6899 115.261 39.3715L118.889 41.8888C117.498 43.6484 115.754 45.0394 113.657 46.0722C111.555 47.1051 109.245 47.6241 106.712 47.6241C104.626 47.6241 102.669 47.2504 100.832 46.4978C98.9992 45.7504 97.3953 44.7331 96.0355 43.4563C94.6704 42.1795 93.596 40.6795 92.8019 38.9615C92.0078 37.2435 91.6133 35.4009 91.6133 33.439C91.6133 31.4771 92.0078 29.6345 92.8019 27.9165C93.596 26.1985 94.6704 24.6985 96.0355 23.4217C97.3953 22.1449 98.9992 21.1276 100.832 20.3802C102.669 19.6328 104.626 19.2539 106.712 19.2539C109.24 19.2539 111.555 19.7729 113.657 20.8058C115.754 21.8386 117.498 23.2348 118.889 24.9943L115.261 27.5116C114.316 26.1933 113.096 25.1397 111.612 24.3507C110.122 23.5618 108.487 23.1674 106.712 23.1674C105.264 23.1674 103.91 23.4373 102.648 23.9822C101.382 24.5272 100.276 25.2591 99.3313 26.1933C98.3867 27.1224 97.6341 28.2072 97.0787 29.4476C96.5234 30.6881 96.2431 32.0168 96.2431 33.439C96.2431 34.8611 96.5182 36.1899 97.0787 37.4304C97.6341 38.6708 98.3867 39.7556 99.3313 40.6847C100.276 41.6137 101.382 42.3508 102.648 42.8958C103.915 43.4407 105.269 43.7106 106.712 43.7106" fill="white"/>
<path d="M178.401 28.2337C178.427 28.3894 178.448 28.5451 178.463 28.7008C178.479 28.8565 178.484 29.0226 178.484 29.2043V29.2821C178.484 29.4638 178.479 29.6299 178.463 29.7856C178.448 29.9413 178.427 30.097 178.401 30.2527V30.289L178.276 31.2181C178.25 31.2441 178.235 31.2959 178.235 31.3738C178.209 31.5036 178.178 31.6178 178.152 31.7216C178.126 31.8254 178.084 31.9395 178.027 32.0693C177.638 33.2579 177.062 34.3167 176.299 35.2458C175.536 36.1748 174.612 36.9638 173.527 37.6126C172.609 38.1316 171.591 38.5364 170.481 38.8323C169.37 39.1281 168.186 39.2787 166.936 39.2787H161.47V47.687H157.006V19.1973H166.93C169.432 19.1973 171.628 19.7527 173.522 20.8634C174.607 21.5122 175.531 22.2959 176.294 23.2302C177.057 24.1593 177.633 25.2077 178.022 26.3703C178.131 26.6558 178.204 26.8997 178.23 27.1074C178.23 27.1852 178.245 27.2371 178.271 27.2631C178.297 27.4188 178.318 27.5745 178.333 27.7302C178.349 27.8859 178.37 28.0261 178.396 28.1558V28.2337H178.401ZM167.475 35.635C168.394 35.635 169.235 35.4534 169.998 35.0901C170.761 34.7267 171.43 34.2492 172.001 33.6575C172.572 33.0658 173.013 32.3859 173.335 31.6229C173.657 30.86 173.818 30.0658 173.818 29.2406C173.818 28.4153 173.657 27.6212 173.335 26.8582C173.013 26.0953 172.572 25.4205 172.001 24.8236C171.43 24.2267 170.766 23.7492 169.998 23.3911C169.235 23.0278 168.394 22.8461 167.475 22.8461H161.512V35.635H167.475Z" fill="white"/>
<path d="M189.539 19.2383H185.076V47.6501H189.539V19.2383Z" fill="white"/>
<path d="M196.125 19.2598H215.646V23.2511H208.094V47.6353H203.677V23.2511H196.125V19.2598Z" fill="white"/>
<path d="M258.228 43.6016H270.695V47.6708H253.764V19.2227H258.228V43.6016Z" fill="white"/>
<path d="M137.89 28.8248L145.707 47.6501H150.249L137.781 19.2383L125.314 47.6501H130.074L137.89 28.8248Z" fill="white"/>
<path d="M234.808 28.8248L242.63 47.6501H247.172L234.705 19.2383L222.232 47.6501H226.997L234.808 28.8248Z" fill="white"/>
<path d="M70.9421 10.037V13.0576V25.238V30.1842L56.4141 30.1782V25.0747V16.5184L48.7578 22.3387V45.0507L56.4141 51.1001V43.6031V37.042L70.9421 37.048V43.7644V53.5194L78.3435 53.5771V4.93945L70.9421 10.037Z" fill="white"/>
<path d="M43.8628 54.93C40.5992 56.7918 37.0169 57.7197 33.1141 57.7197C29.9421 57.7197 26.9692 57.0786 24.1954 55.7982C21.4196 54.5179 18.9963 52.7795 16.9235 50.5832C14.8486 48.3869 13.2038 45.8261 11.9832 42.899C10.7626 39.9719 10.1533 36.8318 10.1533 33.4765C10.1533 30.1213 10.7626 26.9811 11.9832 24.054C13.2018 21.1269 14.8486 18.5642 16.9235 16.3699C18.9963 14.1736 21.4196 12.4372 24.1954 11.1549C26.9692 9.8745 29.9421 9.23333 33.1141 9.23333C37.0169 9.23333 40.5992 10.1632 43.8628 12.023C45.7425 13.0943 47.4171 14.3807 48.9026 15.8681L56.8018 9.98004C54.3546 7.46313 51.541 5.34645 48.3431 3.65191C43.7393 1.22062 38.6637 0 33.1141 0C28.5403 0 24.2412 0.884106 20.2169 2.65232C16.1927 4.42252 12.6841 6.81398 9.69728 9.83269C6.70845 12.8514 4.34685 16.3898 2.60851 20.4439C0.870167 24.5001 0 28.8469 0 33.4805C0 38.1141 0.870167 42.461 2.60652 46.5151C4.34486 50.5712 6.70646 54.1077 9.69529 57.1264C12.6821 60.1451 16.1907 62.5385 20.215 64.3067C24.2392 66.0769 28.5383 66.959 33.1121 66.959C38.6617 66.959 43.7373 65.7404 48.3431 63.2992C51.5589 61.5967 54.3844 59.4661 56.8416 56.9312L48.9544 51.0312C47.457 52.5406 45.7624 53.8448 43.8588 54.93" fill="white"/>
</g>
<defs>
<clipPath id="clip0_1674_2">
<rect width="271" height="67" fill="white"/>
</clipPath>
</defs>
</svg>
