<svg width="271" height="67" viewBox="0 0 271 67" fill="none" xmlns="http://www.w3.org/2000/svg">
    <g id="hero-ch-logo">
        <g id="hero-capital">
            <path id="hero-c"
                d="M106.712 43.7161C108.493 43.7161 110.122 43.3217 111.612 42.5327C113.096 41.7438 114.316 40.6902 115.261 39.3718L118.889 41.8891C117.498 43.6487 115.754 45.0397 113.657 46.0725C111.555 47.1054 109.245 47.6244 106.712 47.6244C104.626 47.6244 102.669 47.2507 100.832 46.4981C98.9996 45.7507 97.3957 44.7334 96.0359 43.4566C94.6708 42.1798 93.5964 40.6798 92.8023 38.9618C92.0082 37.2438 91.6137 35.4012 91.6137 33.4393C91.6137 31.4774 92.0082 29.6348 92.8023 27.9168C93.5964 26.1988 94.6708 24.6988 96.0359 23.422C97.3957 22.1452 98.9996 21.1279 100.832 20.3805C102.669 19.6331 104.626 19.2542 106.712 19.2542C109.24 19.2542 111.555 19.7732 113.657 20.8061C115.754 21.8389 117.498 23.2351 118.889 24.9946L115.261 27.5119C114.316 26.1936 113.096 25.14 111.612 24.351C110.122 23.5621 108.487 23.1677 106.712 23.1677C105.264 23.1677 103.91 23.4376 102.648 23.9825C101.382 24.5275 100.276 25.2594 99.3317 26.1936C98.3871 27.1227 97.6345 28.2075 97.0791 29.4479C96.5238 30.6884 96.2435 32.0171 96.2435 33.4393C96.2435 34.8614 96.5186 36.1902 97.0791 37.4307C97.6345 38.6711 98.3871 39.7559 99.3317 40.685C100.276 41.614 101.382 42.3511 102.648 42.8961C103.915 43.441 105.269 43.7109 106.712 43.7109"
                fill="#004A98"></path>
            <path id="hero-p"
                d="M178.401 28.2334C178.427 28.3891 178.448 28.5448 178.463 28.7005C178.479 28.8562 178.484 29.0223 178.484 29.204V29.2818C178.484 29.4635 178.479 29.6296 178.463 29.7853C178.448 29.941 178.427 30.0967 178.401 30.2524V30.2887L178.276 31.2178C178.25 31.2438 178.235 31.2956 178.235 31.3735C178.209 31.5033 178.178 31.6175 178.152 31.7213C178.126 31.8251 178.084 31.9392 178.027 32.069C177.638 33.2576 177.062 34.3164 176.299 35.2455C175.536 36.1745 174.612 36.9635 173.527 37.6123C172.609 38.1313 171.591 38.5361 170.481 38.832C169.37 39.1278 168.186 39.2784 166.936 39.2784H161.47V47.6867H157.006V19.197H166.93C169.432 19.197 171.628 19.7524 173.522 20.8631C174.607 21.5119 175.531 22.2956 176.294 23.2299C177.057 24.159 177.633 25.2074 178.022 26.37C178.131 26.6555 178.204 26.8994 178.23 27.1071C178.23 27.1849 178.245 27.2368 178.271 27.2628C178.297 27.4185 178.318 27.5742 178.333 27.7299C178.349 27.8856 178.37 28.0258 178.396 28.1555V28.2334H178.401ZM167.475 35.6347C168.394 35.6347 169.235 35.4531 169.998 35.0898C170.761 34.7264 171.43 34.2489 172.001 33.6572C172.572 33.0655 173.013 32.3856 173.335 31.6226C173.657 30.8597 173.818 30.0655 173.818 29.2403C173.818 28.415 173.657 27.6209 173.335 26.8579C173.013 26.095 172.572 25.4202 172.001 24.8233C171.43 24.2264 170.766 23.7489 169.998 23.3908C169.235 23.0275 168.394 22.8458 167.475 22.8458H161.512V35.6347H167.475Z"
                fill="#004A98"></path>
            <path id="hero-i" d="M189.539 19.2385H185.076V47.6503H189.539V19.2385Z" fill="#004A98"></path>
            <path id="hero-t"
                d="M196.126 19.2593H215.647V23.2506H208.095V47.6348H203.678V23.2506H196.126V19.2593Z"
                fill="#004A98"></path>
            <path id="l" d="M258.228 43.6019H270.695V47.6711H253.764V19.223H258.228V43.6019Z"
                fill="#004A98"></path>
            <path id="hero-a-first"
                d="M137.89 28.825L145.707 47.6503H150.249L137.781 19.2385L125.314 47.6503H130.074L137.89 28.825Z"
                fill="#004A98"></path>
            <path id="hero-a-second"
                d="M234.809 28.825L242.631 47.6503H247.173L234.706 19.2385L222.233 47.6503H226.998L234.809 28.825Z"
                fill="#004A98"></path>
        </g>
        <g id="hero-CH">
            <path id="hero-h"
                d="M70.9413 10.0379V13.0585V25.2389V30.1851L56.4133 30.1791V25.0756V16.5193L48.757 22.3396V45.0516L56.4133 51.101V43.604V37.0429L70.9413 37.0489V43.7653V53.5203L78.3427 53.578V4.94031L70.9413 10.0379Z"
                fill="#004A98"></path>
            <path id="hero-c_2"
                d="M43.8628 54.93C40.5992 56.7918 37.0169 57.7197 33.1141 57.7197C29.9421 57.7197 26.9692 57.0786 24.1954 55.7982C21.4196 54.5179 18.9963 52.7795 16.9235 50.5832C14.8486 48.3869 13.2038 45.8261 11.9832 42.899C10.7626 39.9719 10.1533 36.8318 10.1533 33.4765C10.1533 30.1213 10.7626 26.9811 11.9832 24.054C13.2018 21.1269 14.8486 18.5642 16.9235 16.3699C18.9963 14.1736 21.4196 12.4372 24.1954 11.1549C26.9692 9.8745 29.9421 9.23333 33.1141 9.23333C37.0169 9.23333 40.5992 10.1632 43.8628 12.023C45.7425 13.0943 47.4171 14.3807 48.9026 15.8681L56.8018 9.98004C54.3546 7.46313 51.541 5.34645 48.3431 3.65191C43.7393 1.22062 38.6637 0 33.1141 0C28.5403 0 24.2412 0.884106 20.2169 2.65232C16.1927 4.42252 12.6841 6.81398 9.69728 9.83269C6.70845 12.8514 4.34685 16.3898 2.60851 20.4439C0.870167 24.5001 0 28.8469 0 33.4805C0 38.1141 0.870167 42.461 2.60652 46.5151C4.34486 50.5712 6.70646 54.1077 9.69529 57.1264C12.6821 60.1451 16.1907 62.5385 20.215 64.3067C24.2392 66.0769 28.5383 66.959 33.1121 66.959C38.6617 66.959 43.7373 65.7404 48.3431 63.2992C51.5589 61.5967 54.3844 59.4661 56.8416 56.9312L48.9544 51.0312C47.457 52.5406 45.7624 53.8448 43.8588 54.93"
                fill="#898A8D"></path>
        </g>
    </g>
</svg>